<svg xmlns="http://www.w3.org/2000/svg" viewBox="0 0 128 128">
  <defs>
    <radialGradient id="core" cx="38%" cy="30%"><stop stop-color="#f5d0fe"/><stop offset=".38" stop-color="#c084fc"/><stop offset="1" stop-color="#4c1d95"/></radialGradient>
    <linearGradient id="armor" x2="0" y2="1"><stop stop-color="#e9d5ff"/><stop offset=".5" stop-color="#7e22ce"/><stop offset="1" stop-color="#2e1065"/></linearGradient>
    <filter id="glow"><feGaussianBlur stdDeviation="4" result="blur"/><feMerge><feMergeNode in="blur"/><feMergeNode in="SourceGraphic"/></feMerge></filter>
  </defs>
  <circle cx="64" cy="64" r="59" fill="#10051f" stroke="#c084fc" stroke-width="2" stroke-dasharray="4 5"/>
  <path d="m64 5 13 22 25-10-2 28 22 15-20 17 8 27-29-3-17 22-17-22-29 3 8-27L6 60l22-15-2-28 25 10Z" fill="#3b0764" stroke="#e9d5ff" stroke-width="3" stroke-linejoin="round"/>
  <path d="m64 21 11 23 22-8-5 25 18 14-24 7-8 23-14-16-14 16-8-23-24-7 18-14-5-25 22 8Z" fill="url(#armor)" stroke="#c4b5fd" stroke-width="2"/>
  <path d="m42 49 22-13 22 13-7 31H49Z" fill="#1e1b4b" stroke="#e9d5ff" stroke-width="2"/>
  <path d="m50 55 14-9 14 9-5 17H55Z" fill="url(#core)" stroke="#f5d0fe" stroke-width="2" filter="url(#glow)"/>
  <path d="m57 57 7-5 7 5-7 8Z" fill="#fff"/>
  <circle cx="25" cy="34" r="4" fill="#e879f9"/><circle cx="103" cy="93" r="4" fill="#e879f9"/>
</svg>